<?xml version="1.0" encoding="UTF-8"?>
<!DOCTYPE svg PUBLIC "-//W3C//DTD SVG 1.1//EN" "http://www.w3.org/Graphics/SVG/1.1/DTD/svg11.dtd">
<svg xmlns="http://www.w3.org/2000/svg" version="1.1" width="500px" height="500px" style="shape-rendering:geometricPrecision; text-rendering:geometricPrecision; image-rendering:optimizeQuality; fill-rule:evenodd; clip-rule:evenodd" xmlns:xlink="http://www.w3.org/1999/xlink">
<g><path style="opacity:1" fill="#ececec" d="M -0.5,-0.5 C 166.167,-0.5 332.833,-0.5 499.5,-0.5C 499.5,166.167 499.5,332.833 499.5,499.5C 332.833,499.5 166.167,499.5 -0.5,499.5C -0.5,332.833 -0.5,166.167 -0.5,-0.5 Z"/></g>
<g><path style="opacity:1" fill="#050505" d="M 243.5,265.5 C 234.348,266.494 225.015,266.827 215.5,266.5C 210.797,252.891 205.797,239.391 200.5,226C 178.826,225.167 157.159,225.334 135.5,226.5C 130.027,239.921 125.36,253.588 121.5,267.5C 120.5,267.5 119.5,267.5 118.5,267.5C 135.89,217.498 153.39,167.498 171,117.5C 173.554,116.229 176.387,115.562 179.5,115.5C 182.421,115.524 185.254,115.857 188,116.5C 206.609,166.163 225.109,215.83 243.5,265.5 Z"/></g>
<g><path style="opacity:1" fill="#e9e9e9" d="M 198.5,221.5 C 178.167,222.833 157.833,222.833 137.5,221.5C 147.359,191.756 157.526,162.09 168,132.5C 177.677,162.366 187.844,192.033 198.5,221.5 Z"/></g>
<g><path style="opacity:1" fill="#050505" d="M 311.5,265.5 C 295.008,266.497 278.342,266.83 261.5,266.5C 250.263,254.784 246.097,240.784 249,224.5C 254.033,204.372 266.866,192.538 287.5,189C 306.899,185.56 324.899,188.893 341.5,199C 352.045,207.89 353.045,217.557 344.5,228C 339.495,230.668 334.161,232.168 328.5,232.5C 329.21,220.751 326.71,209.751 321,199.5C 313.368,191.963 304.201,189.13 293.5,191C 277.908,194.925 270.241,204.925 270.5,221C 270.027,237.185 277.027,248.852 291.5,256C 298.067,259.451 304.734,262.618 311.5,265.5 Z"/></g>
<g><path style="opacity:1" fill="#868686" d="M 137.5,221.5 C 157.833,222.833 178.167,222.833 198.5,221.5C 199.043,221.56 199.376,221.893 199.5,222.5C 178.5,223.833 157.5,223.833 136.5,222.5C 136.624,221.893 136.957,221.56 137.5,221.5 Z"/></g>
<g><path style="opacity:1" fill="#3c3c3c" d="M 243.5,265.5 C 244.043,265.56 244.376,265.893 244.5,266.5C 234.675,267.823 225.008,267.823 215.5,266.5C 225.015,266.827 234.348,266.494 243.5,265.5 Z"/></g>
<g><path style="opacity:1" fill="#3d3d3d" d="M 311.5,265.5 C 312.473,265.987 313.473,266.487 314.5,267C 296.662,267.829 278.995,267.662 261.5,266.5C 278.342,266.83 295.008,266.497 311.5,265.5 Z"/></g>
<g><path style="opacity:1" fill="#434343" d="M 241.5,282.5 C 237.958,280.899 234.291,279.565 230.5,278.5C 227.206,279.136 225.873,281.136 226.5,284.5C 224.474,280.396 225.808,278.062 230.5,277.5C 235.037,277.531 238.704,279.198 241.5,282.5 Z"/></g>
<g><path style="opacity:1" fill="#343434" d="M 153.5,298.5 C 152.833,298.5 152.167,298.5 151.5,298.5C 150.694,297.272 149.694,296.272 148.5,295.5C 149.5,295.5 150.5,295.5 151.5,295.5C 151.666,290.489 151.499,285.489 151,280.5C 149.442,284.367 147.608,288.034 145.5,291.5C 146.91,285.936 148.91,280.603 151.5,275.5C 152.167,282.5 152.833,289.5 153.5,296.5C 160.043,297.79 160.043,298.457 153.5,298.5 Z"/></g>
<g><path style="opacity:1" fill="#d7d7d7" d="M 148.5,295.5 C 146.771,294.764 145.771,293.43 145.5,291.5C 147.608,288.034 149.442,284.367 151,280.5C 151.499,285.489 151.666,290.489 151.5,295.5C 150.5,295.5 149.5,295.5 148.5,295.5 Z"/></g>
<g><path style="opacity:1" fill="#414141" d="M 226.5,284.5 C 228.446,285.254 229.279,286.588 229,288.5C 227.519,287.529 226.685,286.196 226.5,284.5 Z"/></g>
<g><path style="opacity:1" fill="#555555" d="M 241.5,282.5 C 244.726,283.877 245.059,285.543 242.5,287.5C 242.371,285.784 242.038,284.117 241.5,282.5 Z"/></g>
<g><path style="opacity:1" fill="#606060" d="M 242.5,287.5 C 240.085,289.379 237.418,289.713 234.5,288.5C 237.086,287.52 239.753,287.187 242.5,287.5 Z"/></g>
<g><path style="opacity:1" fill="#454545" d="M 145.5,291.5 C 145.771,293.43 146.771,294.764 148.5,295.5C 146.379,295.325 144.379,295.659 142.5,296.5C 142.5,295.5 142.5,294.5 142.5,293.5C 136.204,291.125 129.704,289.459 123,288.5C 121.5,288.833 120,289.167 118.5,289.5C 121.29,292.922 121.123,293.589 118,291.5C 117.178,288.483 118.345,286.817 121.5,286.5C 128.857,287.785 136.024,289.785 143,292.5C 143.902,292.257 144.735,291.923 145.5,291.5 Z"/></g>
<g><path style="opacity:1" fill="#686868" d="M 203.5,292.5 C 203.631,291.761 203.464,291.094 203,290.5C 202.23,291.598 201.397,291.598 200.5,290.5C 200.499,286.794 202.165,284.461 205.5,283.5C 205.326,285.861 204.993,288.194 204.5,290.5C 206.924,290.192 209.257,290.526 211.5,291.5C 208.914,292.48 206.247,292.813 203.5,292.5 Z"/></g>
<g><path style="opacity:1" fill="#181818" d="M 200.5,290.5 C 201.397,291.598 202.23,291.598 203,290.5C 203.464,291.094 203.631,291.761 203.5,292.5C 202.89,293.391 202.557,294.391 202.5,295.5C 201.778,295.918 201.278,296.584 201,297.5C 200.601,297.272 200.435,296.938 200.5,296.5C 200.5,295.167 200.5,293.833 200.5,292.5C 198.473,292.662 196.473,292.495 194.5,292C 196.708,291.809 198.708,291.309 200.5,290.5 Z"/></g>
<g><path style="opacity:1" fill="#6a6a6a" d="M 320.5,292.5 C 320.587,289.402 320.087,289.068 319,291.5C 318.722,290.584 318.222,289.918 317.5,289.5C 317.447,285.862 319.113,283.862 322.5,283.5C 322.007,285.806 321.674,288.139 321.5,290.5C 323.604,290.201 325.604,290.534 327.5,291.5C 325.257,292.474 322.924,292.808 320.5,292.5 Z"/></g>
<g><path style="opacity:1" fill="#393939" d="M 223.5,300.5 C 226.779,301.492 230.112,301.659 233.5,301C 234.574,300.261 235.241,299.261 235.5,298C 234.777,295.447 233.444,293.28 231.5,291.5C 234.474,292.031 236.141,294.197 236.5,298C 236.561,299.711 235.894,301.044 234.5,302C 231.167,302.667 227.833,302.667 224.5,302C 223.944,301.617 223.611,301.117 223.5,300.5 Z"/></g>
<g><path style="opacity:1" fill="#434343" d="M 224.5,296.5 C 225.002,294.915 226.002,294.415 227.5,295C 226.756,296.039 225.756,296.539 224.5,296.5 Z"/></g>
<g><path style="opacity:1" fill="#434343" d="M 126.5,298.5 C 124.804,298.315 123.471,297.481 122.5,296C 124.412,295.721 125.746,296.554 126.5,298.5 Z"/></g>
<g><path style="opacity:1" fill="#6e6e6e" d="M 151.5,298.5 C 152.167,298.5 152.833,298.5 153.5,298.5C 154.13,303.837 153.464,303.837 151.5,298.5 Z"/></g>
<g><path style="opacity:1" fill="#4b4b4b" d="M 211.5,299.5 C 212.122,298.373 212.955,297.373 214,296.5C 214.519,298.489 213.686,299.489 211.5,299.5 Z"/></g>
<g><path style="opacity:1" fill="#2d2d2d" d="M 224.5,296.5 C 224.167,297.833 223.833,299.167 223.5,300.5C 222.147,298.872 222.481,297.538 224.5,296.5 Z"/></g>
<g><path style="opacity:1" fill="#333333" d="M 317.5,289.5 C 318.222,289.918 318.722,290.584 319,291.5C 320.087,289.068 320.587,289.402 320.5,292.5C 317.985,295.263 317.985,298.096 320.5,301C 318.887,301.089 317.72,300.255 317,298.5C 313.239,301.243 309.072,302.076 304.5,301C 303.304,300.346 303.304,299.846 304.5,299.5C 309.033,300.691 309.533,299.691 306,296.5C 305.184,297.823 304.017,298.489 302.5,298.5C 304.127,296.37 305.96,294.37 308,292.5C 307.769,300.974 310.769,302.308 317,296.5C 317.49,295.207 317.657,293.873 317.5,292.5C 315.143,292.663 312.81,292.497 310.5,292C 313.361,292.03 315.695,291.197 317.5,289.5 Z"/></g>
<g><path style="opacity:1" fill="#242424" d="M 335.5,299.5 C 334.508,299.328 333.842,299.662 333.5,300.5C 332.713,302.104 331.38,302.771 329.5,302.5C 329.649,301.448 329.483,300.448 329,299.5C 327.867,301.211 326.367,301.711 324.5,301C 327.059,299.223 329.726,297.723 332.5,296.5C 332.56,295.957 332.893,295.624 333.5,295.5C 334.705,296.577 335.372,297.91 335.5,299.5 Z"/></g>
<g><path style="opacity:1" fill="#333333" d="M 126.5,298.5 C 128.153,298.66 129.486,299.326 130.5,300.5C 128.62,300.771 127.287,300.104 126.5,298.5 Z"/></g>
<g><path style="opacity:1" fill="#2b2b2b" d="M 174.5,299.5 C 174.082,300.222 173.416,300.722 172.5,301C 169.854,301.497 167.187,301.664 164.5,301.5C 164.5,300.167 164.5,298.833 164.5,297.5C 162.833,297.5 161.167,297.5 159.5,297.5C 159.222,295.654 159.889,294.32 161.5,293.5C 162.711,294.274 162.711,295.107 161.5,296C 162.793,296.49 164.127,296.657 165.5,296.5C 165.5,297.833 165.5,299.167 165.5,300.5C 168.545,300.492 171.545,300.159 174.5,299.5 Z"/></g>
<g><path style="opacity:1" fill="#474747" d="M 202.5,295.5 C 202.178,297.722 202.845,299.556 204.5,301C 206.922,301.135 209.255,300.635 211.5,299.5C 207.401,303.723 203.568,303.389 200,298.5C 197.615,300.776 194.781,302.109 191.5,302.5C 188.194,300.426 184.527,299.092 180.5,298.5C 179.522,298.977 178.689,299.643 178,300.5C 177.02,303.898 175.854,307.231 174.5,310.5C 173.675,311.386 172.675,311.719 171.5,311.5C 172.318,307.525 173.984,303.859 176.5,300.5C 176.043,299.702 175.376,299.369 174.5,299.5C 175.145,298.188 176.145,297.188 177.5,296.5C 181.032,297.803 184.532,297.803 188,296.5C 188.333,297.833 188.667,299.167 189,300.5C 193.464,301.368 197.297,300.034 200.5,296.5C 200.435,296.938 200.601,297.272 201,297.5C 201.278,296.584 201.778,295.918 202.5,295.5 Z"/></g>
<g><path style="opacity:1" fill="#2b2b2b" d="M 253.5,299.5 C 253.082,300.222 252.416,300.722 251.5,301C 248.854,301.497 246.187,301.664 243.5,301.5C 243.5,300.167 243.5,298.833 243.5,297.5C 241.833,297.5 240.167,297.5 238.5,297.5C 238.222,295.654 238.889,294.32 240.5,293.5C 241.711,294.274 241.711,295.107 240.5,296C 241.793,296.49 243.127,296.657 244.5,296.5C 244.5,297.833 244.5,299.167 244.5,300.5C 247.545,300.492 250.545,300.159 253.5,299.5 Z"/></g>
<g><path style="opacity:1" fill="#393939" d="M 284.5,299.5 C 284.389,300.117 284.056,300.617 283.5,301C 280.571,301.777 277.737,301.61 275,300.5C 271.868,303.456 269.868,302.79 269,298.5C 264.003,303.314 258.836,303.648 253.5,299.5C 256.267,295.499 257.767,295.833 258,300.5C 262.436,301.386 266.27,300.052 269.5,296.5C 270.429,297.689 270.762,299.022 270.5,300.5C 271.5,300.5 272.5,300.5 273.5,300.5C 273.772,294.118 274.772,293.952 276.5,300C 279.192,300.43 281.859,300.263 284.5,299.5 Z"/></g>
<g><path style="opacity:1" fill="#444444" d="M 302.5,298.5 C 299.149,302.667 295.149,303.334 290.5,300.5C 289.15,301.95 287.484,302.617 285.5,302.5C 285.737,301.209 285.404,300.209 284.5,299.5C 285.254,297.554 286.588,296.721 288.5,297C 285.954,302.762 286.621,302.928 290.5,297.5C 291.55,299.873 293.383,300.873 296,300.5C 298.442,300.518 300.608,299.851 302.5,298.5 Z"/></g>
<g><path style="opacity:1" fill="#c4c4c4" d="M 332.5,296.5 C 333.334,298.263 332.834,299.93 331,301.5C 330.387,299.505 330.887,297.838 332.5,296.5 Z"/></g>
<g><path style="opacity:1" fill="#3c3c3c" d="M 370.5,300.5 C 369.883,300.389 369.383,300.056 369,299.5C 367.981,300.687 366.814,301.687 365.5,302.5C 364.452,301.617 363.285,300.95 362,300.5C 358.953,301.751 355.953,301.751 353,300.5C 349.746,303.36 347.579,302.693 346.5,298.5C 346.783,297.711 347.283,297.044 348,296.5C 348.216,298.384 348.883,300.051 350,301.5C 351,299.5 352,297.5 353,295.5C 354.617,296.536 354.784,297.703 353.5,299C 356.397,300.772 359.397,300.772 362.5,299C 364.641,297.692 366.641,296.192 368.5,294.5C 369.477,296.411 370.143,298.411 370.5,300.5 Z"/></g>
<g><path style="opacity:1" fill="#cbcbcb" d="M 366.5,297.5 C 367.713,298.497 367.546,299.497 366,300.5C 365.53,299.423 365.697,298.423 366.5,297.5 Z"/></g>
<g><path style="opacity:1" fill="#595959" d="M 142.5,296.5 C 139.928,302.463 135.928,303.797 130.5,300.5C 135.367,301.411 139.367,300.078 142.5,296.5 Z"/></g>
<g><path style="opacity:1" fill="#595959" d="M 346.5,298.5 C 342.78,302.843 338.447,303.51 333.5,300.5C 333.842,299.662 334.508,299.328 335.5,299.5C 339.274,300.818 342.941,300.485 346.5,298.5 Z"/></g>
<g><path style="opacity:1" fill="#626262" d="M 370.5,300.5 C 374.914,300.809 378.914,299.976 382.5,298C 378.904,302.369 374.904,303.202 370.5,300.5 Z"/></g>
<g><path style="opacity:1" fill="#050505" d="M 252.5,316.5 C 256.833,316.5 261.167,316.5 265.5,316.5C 265.162,328.481 267.662,339.814 273,350.5C 284.212,363.714 298.045,367.214 314.5,361C 328.273,354.475 334.94,343.475 334.5,328C 334.469,324.182 333.802,320.515 332.5,317C 340.493,316.5 348.493,316.334 356.5,316.5C 356.098,340.411 344.431,355.911 321.5,363C 305.179,366.285 288.846,366.285 272.5,363C 253.403,357.611 244.57,345.111 246,325.5C 247.611,322.062 249.777,319.062 252.5,316.5 Z"/></g>
</svg>
